<svg width="512" height="512" viewBox="0 0 512 512" fill="none" xmlns="http://www.w3.org/2000/svg">
<rect width="512" height="512" fill="#E60023"/>
<path fill-rule="evenodd" clip-rule="evenodd" d="M210.899 213.532C210.899 213.532 203.436 216.365 193.163 213.969C193.163 213.969 199.541 204.947 210.899 213.532ZM212.105 178.209C220.109 184.88 222.11 192.398 222.11 192.398C208.259 188.484 212.105 178.209 212.105 178.209ZM239.01 246.987C272.613 192.604 302.222 169.333 342.78 169.333C393.389 169.333 429.449 210.249 429.449 256.004C429.449 303.051 391.595 342.667 342.78 342.667C318.549 342.667 284.883 330.184 277.245 295.473C271.003 267.094 291.385 247.189 302.741 245.354C300.957 247.45 293.066 260.148 296.873 278.43C301.714 301.798 321.816 313.349 342.78 313.349C370.314 313.349 391.251 288.974 391.251 263.088C391.251 239.358 372.146 212.817 342.78 212.817C323.635 212.817 302.293 221.032 278.299 261.863C250.962 308.375 220.469 342.667 169.333 342.667C121.468 342.667 82.6666 303.865 82.6666 256C82.6666 208.135 121.468 169.333 169.333 169.333C173.399 169.333 175.474 169.499 178.576 169.746C179.137 169.791 179.732 169.838 180.378 169.888C184.069 170.17 187.599 170.026 189.729 169.939C189.944 169.93 190.145 169.922 190.33 169.915H190.379C193.768 169.777 197.404 169.666 201.289 170.243C211.029 171.691 213.325 173.954 220.826 181.778C223.006 184.059 224.901 186.073 226.591 187.869C230.714 192.252 233.613 195.332 236.445 197.801C240.425 201.282 243.011 205.938 238.746 213.975C234.486 222.024 229.067 222.716 223.82 221.62C220.147 220.848 215.926 220.376 209.96 219.709C207.41 219.423 204.54 219.102 201.258 218.707C190.295 217.401 187.045 216.933 180.154 210.131C179.265 209.254 178.421 208.403 177.656 207.631C176.823 206.791 176.084 206.045 175.48 205.461C166.738 197.094 148.013 197.966 135.763 209.563C125.516 219.26 119.152 232.514 119.152 247.262C119.152 276.376 140.539 299.449 169.777 299.449C196.501 299.449 215.42 285.154 239.01 246.987Z" fill="white"/>
</svg>
